<?xml version="1.0" encoding="UTF-8" standalone="no"?>
<!DOCTYPE svg PUBLIC "-//W3C//DTD SVG 1.1//EN" "http://www.w3.org/Graphics/SVG/1.1/DTD/svg11.dtd">
<svg width="100%" height="100%" viewBox="0 0 640 512" version="1.1" xmlns="http://www.w3.org/2000/svg" xmlns:xlink="http://www.w3.org/1999/xlink" xml:space="preserve" xmlns:serif="http://www.serif.com/" style="fill-rule:evenodd;clip-rule:evenodd;stroke-linejoin:round;stroke-miterlimit:2;">
    <path d="M576,64L205.26,64C188.29,63.997 171.996,70.746 160,82.75L9.37,233.37C-3.13,245.87 -3.13,266.13 9.37,278.62L160,429.25C172,441.25 188.28,448 205.25,448L576,448C611.35,448 640,419.35 640,384L640,128C640,92.65 611.35,64 576,64ZM491.31,318.06C497.56,324.31 497.56,334.44 491.31,340.69L468.69,363.31C462.44,369.56 452.31,369.56 446.06,363.31L384,301.25L321.94,363.31C315.69,369.56 305.56,369.56 299.31,363.31L276.69,340.69C270.44,334.44 270.44,324.31 276.69,318.06L338.75,256L276.69,193.94C270.44,187.69 270.44,177.56 276.69,171.31L299.31,148.69C305.56,142.44 315.69,142.44 321.94,148.69L384,210.75L446.06,148.69C452.31,142.44 462.44,142.44 468.69,148.69L491.31,171.31C497.56,177.56 497.56,187.69 491.31,193.94L429.25,256L491.31,318.06Z" style="fill:rgb(0,177,197);fill-rule:nonzero;"/>
</svg>
