<?xml version="1.0" encoding="UTF-8" standalone="no"?>
<!DOCTYPE svg PUBLIC "-//W3C//DTD SVG 1.1//EN" "http://www.w3.org/Graphics/SVG/1.1/DTD/svg11.dtd">
<svg width="100%" height="100%" viewBox="0 0 448 512" version="1.1" xmlns="http://www.w3.org/2000/svg" xmlns:xlink="http://www.w3.org/1999/xlink" xml:space="preserve" xmlns:serif="http://www.serif.com/" style="fill-rule:evenodd;clip-rule:evenodd;stroke-linejoin:round;stroke-miterlimit:2;">
    <path d="M416,304L32,304C14.33,304 0,318.33 0,336L0,368C0,385.67 14.33,400 32,400L416,400C433.67,400 448,385.67 448,368L448,336C448,318.33 433.67,304 416,304ZM416,112L32,112C14.33,112 0,126.33 0,144L0,176C0,193.67 14.33,208 32,208L416,208C433.67,208 448,193.67 448,176L448,144C448,126.33 433.67,112 416,112Z" style="fill:rgb(39,48,67);fill-rule:nonzero;"/>
</svg>
